<svg width="60" height="60" viewBox="0 0 60 60" fill="none" xmlns="http://www.w3.org/2000/svg">
<circle cx="30" cy="30" r="30" fill="url(#paint0_linear_8120_811)"/>
<path d="M18.12 44V38.2L28.24 28.84C28.88 28.2267 29.3467 27.6933 29.64 27.24C29.96 26.7867 30.1733 26.3867 30.28 26.04C30.3867 25.6667 30.44 25.32 30.44 25C30.44 24.3067 30.2133 23.7733 29.76 23.4C29.3067 23 28.6267 22.8 27.72 22.8C26.8933 22.8 26.1067 23.0267 25.36 23.48C24.6133 23.9067 24.0267 24.5467 23.6 25.4L16.48 21.84C17.4933 19.92 19.0133 18.36 21.04 17.16C23.0667 15.96 25.5867 15.36 28.6 15.36C30.8133 15.36 32.7733 15.72 34.48 16.44C36.1867 17.16 37.52 18.1733 38.48 19.48C39.44 20.7867 39.92 22.3333 39.92 24.12C39.92 25.0267 39.8 25.9333 39.56 26.84C39.3467 27.7467 38.8933 28.7067 38.2 29.72C37.5067 30.7067 36.48 31.8133 35.12 33.04L27.52 39.96L26.04 36.68H40.56V44H18.12Z" fill="white"/>
<defs>
<linearGradient id="paint0_linear_8120_811" x1="30" y1="0" x2="30" y2="60" gradientUnits="userSpaceOnUse">
<stop stop-color="#FDBC02"/>
<stop offset="1" stop-color="#E20A12"/>
</linearGradient>
</defs>
</svg>
