<svg width="60" height="60" viewBox="0 0 60 60" fill="none" xmlns="http://www.w3.org/2000/svg">
<circle cx="30" cy="30" r="30" fill="url(#paint0_linear_8120_812)"/>
<path d="M27.8 44.64C25.88 44.64 23.9333 44.4267 21.96 44C19.9867 43.5733 18.2533 42.9467 16.76 42.12L19.96 35.16C21.16 35.8533 22.4133 36.3733 23.72 36.72C25.0533 37.04 26.3067 37.2 27.48 37.2C28.5467 37.2 29.4133 37.0267 30.08 36.68C30.7733 36.3067 31.12 35.76 31.12 35.04C31.12 34.4267 30.8667 33.96 30.36 33.64C29.8533 33.2933 29 33.12 27.8 33.12H24.08V27.32L31.32 19.96L32.16 23.12H18.2V16H39.08V21.8L31.84 29.16L27.32 26.6H29.8C33.32 26.6 36 27.3867 37.84 28.96C39.68 30.5333 40.6 32.56 40.6 35.04C40.6 36.64 40.1467 38.1733 39.24 39.64C38.36 41.1067 36.9733 42.3067 35.08 43.24C33.2133 44.1733 30.7867 44.64 27.8 44.64Z" fill="white"/>
<defs>
<linearGradient id="paint0_linear_8120_812" x1="30" y1="0" x2="30" y2="60" gradientUnits="userSpaceOnUse">
<stop stop-color="#FDBC02"/>
<stop offset="1" stop-color="#E20A12"/>
</linearGradient>
</defs>
</svg>
