<svg width="60" height="60" viewBox="0 0 60 60" fill="none" xmlns="http://www.w3.org/2000/svg">
<circle cx="30" cy="30" r="30" fill="url(#paint0_linear_8120_814)"/>
<path d="M28.24 44.64C26.32 44.64 24.3733 44.4267 22.4 44C20.4267 43.5733 18.6933 42.9467 17.2 42.12L20.4 35.16C21.6 35.8533 22.8533 36.3733 24.16 36.72C25.4667 37.04 26.7067 37.2 27.88 37.2C28.9467 37.2 29.8267 37.0133 30.52 36.64C31.2133 36.2667 31.56 35.72 31.56 35C31.56 34.6 31.44 34.2533 31.2 33.96C30.96 33.64 30.5333 33.4 29.92 33.24C29.3333 33.08 28.4667 33 27.32 33H19.2L20.6 16H39.2V23.12H23.92L28.68 19.08L27.84 29.92L23.08 25.88H29.6C32.3733 25.88 34.5867 26.28 36.24 27.08C37.92 27.88 39.1333 28.96 39.88 30.32C40.6533 31.6533 41.04 33.1467 41.04 34.8C41.04 36.4533 40.5867 38.04 39.68 39.56C38.8 41.0533 37.4133 42.28 35.52 43.24C33.6533 44.1733 31.2267 44.64 28.24 44.64Z" fill="white"/>
<defs>
<linearGradient id="paint0_linear_8120_814" x1="30" y1="0" x2="30" y2="60" gradientUnits="userSpaceOnUse">
<stop stop-color="#FDBC02"/>
<stop offset="1" stop-color="#E20A12"/>
</linearGradient>
</defs>
</svg>
