<svg width="60" height="60" viewBox="0 0 60 60" fill="none" xmlns="http://www.w3.org/2000/svg">
<circle cx="30" cy="30" r="30" fill="url(#paint0_linear_8120_815)"/>
<path d="M30.6 44.64C27.9333 44.64 25.5867 44.1333 23.56 43.12C21.56 42.08 19.9867 40.5467 18.84 38.52C17.72 36.4667 17.16 33.92 17.16 30.88C17.16 27.6 17.8133 24.8133 19.12 22.52C20.4267 20.2 22.24 18.4267 24.56 17.2C26.9067 15.9733 29.6133 15.36 32.68 15.36C34.3333 15.36 35.92 15.56 37.44 15.96C38.9867 16.3333 40.2933 16.8667 41.36 17.56L37.96 24.16C37.1333 23.5733 36.2933 23.1867 35.44 23C34.6133 22.7867 33.76 22.68 32.88 22.68C30.9867 22.68 29.4667 23.2533 28.32 24.4C27.2 25.52 26.64 27.16 26.64 29.32C26.64 29.72 26.64 30.12 26.64 30.52C26.64 30.8933 26.64 31.28 26.64 31.68L24.48 30.12C25.0133 29.2133 25.64 28.4533 26.36 27.84C27.08 27.2 27.9333 26.72 28.92 26.4C29.9067 26.0533 31.0533 25.88 32.36 25.88C34.0667 25.88 35.64 26.2533 37.08 27C38.5467 27.72 39.72 28.7467 40.6 30.08C41.5067 31.4133 41.96 33 41.96 34.84C41.96 36.84 41.4533 38.5733 40.44 40.04C39.4267 41.5067 38.0533 42.64 36.32 43.44C34.6133 44.24 32.7067 44.64 30.6 44.64ZM29.96 38.12C30.52 38.12 31.0133 38.0133 31.44 37.8C31.8933 37.56 32.24 37.2267 32.48 36.8C32.72 36.3733 32.84 35.8667 32.84 35.28C32.84 34.4 32.5733 33.7067 32.04 33.2C31.5067 32.6667 30.8133 32.4 29.96 32.4C29.4 32.4 28.9067 32.52 28.48 32.76C28.0533 33 27.7067 33.3333 27.44 33.76C27.2 34.1867 27.08 34.6933 27.08 35.28C27.08 35.8667 27.2 36.3733 27.44 36.8C27.7067 37.2267 28.0533 37.56 28.48 37.8C28.9067 38.0133 29.4 38.12 29.96 38.12Z" fill="white"/>
<defs>
<linearGradient id="paint0_linear_8120_815" x1="30" y1="0" x2="30" y2="60" gradientUnits="userSpaceOnUse">
<stop stop-color="#FDBC02"/>
<stop offset="1" stop-color="#E20A12"/>
</linearGradient>
</defs>
</svg>
