<svg width="60" height="60" viewBox="0 0 60 60" fill="none" xmlns="http://www.w3.org/2000/svg">
<circle cx="30" cy="30" r="30" fill="url(#paint0_linear_8120_817)"/>
<path d="M29.56 44.64C27.08 44.64 24.8933 44.28 23 43.56C21.1333 42.8133 19.6667 41.7733 18.6 40.44C17.5333 39.08 17 37.4933 17 35.68C17 33.8667 17.5467 32.32 18.64 31.04C19.7333 29.76 21.2267 28.7867 23.12 28.12C25.0133 27.4533 27.16 27.12 29.56 27.12C31.96 27.12 34.1067 27.4533 36 28.12C37.8933 28.7867 39.3867 29.76 40.48 31.04C41.5733 32.32 42.12 33.8667 42.12 35.68C42.12 37.4933 41.5867 39.08 40.52 40.44C39.4533 41.7733 37.9733 42.8133 36.08 43.56C34.2133 44.28 32.04 44.64 29.56 44.64ZM29.56 38.28C30.4667 38.28 31.2 38.0267 31.76 37.52C32.3467 36.9867 32.64 36.2667 32.64 35.36C32.64 34.4533 32.3467 33.7467 31.76 33.24C31.2 32.7067 30.4667 32.44 29.56 32.44C28.6533 32.44 27.9067 32.7067 27.32 33.24C26.76 33.7467 26.48 34.4533 26.48 35.36C26.48 36.2667 26.76 36.9867 27.32 37.52C27.9067 38.0267 28.6533 38.28 29.56 38.28ZM29.56 31.68C27.3733 31.68 25.4 31.3733 23.64 30.76C21.9067 30.12 20.5333 29.2133 19.52 28.04C18.5067 26.84 18 25.4 18 23.72C18 22.0133 18.4933 20.5467 19.48 19.32C20.4667 18.0667 21.8267 17.0933 23.56 16.4C25.2933 15.7067 27.2933 15.36 29.56 15.36C31.8267 15.36 33.8267 15.7067 35.56 16.4C37.2933 17.0933 38.6533 18.0667 39.64 19.32C40.6267 20.5467 41.12 22.0133 41.12 23.72C41.12 25.4 40.6133 26.84 39.6 28.04C38.5867 29.2133 37.2133 30.12 35.48 30.76C33.7467 31.3733 31.7733 31.68 29.56 31.68ZM29.56 26.52C30.2 26.52 30.7333 26.3067 31.16 25.88C31.5867 25.4533 31.8 24.8667 31.8 24.12C31.8 23.3467 31.5867 22.76 31.16 22.36C30.7333 21.9333 30.2 21.72 29.56 21.72C28.92 21.72 28.3867 21.9333 27.96 22.36C27.5333 22.76 27.32 23.3467 27.32 24.12C27.32 24.8667 27.5333 25.4533 27.96 25.88C28.3867 26.3067 28.92 26.52 29.56 26.52Z" fill="white"/>
<defs>
<linearGradient id="paint0_linear_8120_817" x1="30" y1="0" x2="30" y2="60" gradientUnits="userSpaceOnUse">
<stop stop-color="#FDBC02"/>
<stop offset="1" stop-color="#E20A12"/>
</linearGradient>
</defs>
</svg>
