<svg width="120" height="120" viewBox="0 0 120 120" fill="none" xmlns="http://www.w3.org/2000/svg">
<circle cx="60" cy="60" r="58" fill="black" fill-opacity="0.35" stroke="url(#paint0_linear_8003_855)" stroke-width="4"/>
<path d="M24.7657 65V56.48L25.5307 57.245H21.6907V54.5H31.3207V57.245H27.4807L28.2457 56.48V65H24.7657ZM33.834 68.06C33.384 68.06 32.924 67.99 32.454 67.85C31.994 67.72 31.624 67.545 31.344 67.325L32.469 65C32.639 65.13 32.829 65.235 33.039 65.315C33.259 65.395 33.469 65.435 33.669 65.435C33.969 65.435 34.199 65.37 34.359 65.24C34.519 65.12 34.649 64.935 34.749 64.685L35.094 63.815L35.334 63.485L37.959 56.795H41.169L37.794 65.165C37.494 65.915 37.144 66.5 36.744 66.92C36.354 67.34 35.914 67.635 35.424 67.805C34.944 67.975 34.414 68.06 33.834 68.06ZM34.629 65.375L31.059 56.795H34.539L36.999 63.185L34.629 65.375ZM47.3935 65.15C46.6835 65.15 46.0935 65 45.6235 64.7C45.1635 64.39 44.8235 63.925 44.6035 63.305C44.3835 62.675 44.2735 61.875 44.2735 60.905C44.2735 59.915 44.3735 59.11 44.5735 58.49C44.7835 57.86 45.1185 57.395 45.5785 57.095C46.0385 56.795 46.6435 56.645 47.3935 56.645C48.1135 56.645 48.7735 56.82 49.3735 57.17C49.9735 57.51 50.4535 58 50.8135 58.64C51.1735 59.27 51.3535 60.025 51.3535 60.905C51.3535 61.785 51.1735 62.545 50.8135 63.185C50.4535 63.815 49.9735 64.3 49.3735 64.64C48.7735 64.98 48.1135 65.15 47.3935 65.15ZM41.9185 67.91V56.795H45.1435V57.905L45.1585 60.905L45.3085 63.905V67.91H41.9185ZM46.5835 62.51C46.8335 62.51 47.0585 62.45 47.2585 62.33C47.4585 62.21 47.6185 62.03 47.7385 61.79C47.8585 61.55 47.9185 61.255 47.9185 60.905C47.9185 60.545 47.8585 60.245 47.7385 60.005C47.6185 59.765 47.4585 59.585 47.2585 59.465C47.0585 59.345 46.8335 59.285 46.5835 59.285C46.3335 59.285 46.1085 59.345 45.9085 59.465C45.7085 59.585 45.5485 59.765 45.4285 60.005C45.3085 60.245 45.2485 60.545 45.2485 60.905C45.2485 61.255 45.3085 61.55 45.4285 61.79C45.5485 62.03 45.7085 62.21 45.9085 62.33C46.1085 62.45 46.3335 62.51 46.5835 62.51ZM52.4508 65V56.795H55.8258V59.675H58.1358V56.795H61.5108V65H58.1358V62.33H55.8258V65H52.4508ZM63.1002 65V56.795H66.4752V60.5L69.3102 56.795H72.4302V65H69.0552V61.28L66.2352 65H63.1002ZM79.4883 65.15C78.7783 65.15 78.1883 65 77.7183 64.7C77.2583 64.39 76.9183 63.925 76.6983 63.305C76.4783 62.675 76.3683 61.875 76.3683 60.905C76.3683 59.915 76.4683 59.11 76.6683 58.49C76.8783 57.86 77.2133 57.395 77.6733 57.095C78.1333 56.795 78.7383 56.645 79.4883 56.645C80.2083 56.645 80.8683 56.82 81.4683 57.17C82.0683 57.51 82.5483 58 82.9083 58.64C83.2683 59.27 83.4483 60.025 83.4483 60.905C83.4483 61.785 83.2683 62.545 82.9083 63.185C82.5483 63.815 82.0683 64.3 81.4683 64.64C80.8683 64.98 80.2083 65.15 79.4883 65.15ZM74.0133 67.91V56.795H77.2383V57.905L77.2533 60.905L77.4033 63.905V67.91H74.0133ZM78.6783 62.51C78.9283 62.51 79.1533 62.45 79.3533 62.33C79.5533 62.21 79.7133 62.03 79.8333 61.79C79.9533 61.55 80.0133 61.255 80.0133 60.905C80.0133 60.545 79.9533 60.245 79.8333 60.005C79.7133 59.765 79.5533 59.585 79.3533 59.465C79.1533 59.345 78.9283 59.285 78.6783 59.285C78.4283 59.285 78.2033 59.345 78.0033 59.465C77.8033 59.585 77.6433 59.765 77.5233 60.005C77.4033 60.245 77.3433 60.545 77.3433 60.905C77.3433 61.255 77.4033 61.55 77.5233 61.79C77.6433 62.03 77.8033 62.21 78.0033 62.33C78.2033 62.45 78.4283 62.51 78.6783 62.51ZM93.3805 65V56.795H96.7555V65H93.3805ZM89.6155 59.27C90.7155 59.27 91.5355 59.51 92.0755 59.99C92.6155 60.47 92.8855 61.15 92.8855 62.03C92.8855 62.95 92.5655 63.675 91.9255 64.205C91.2955 64.735 90.3855 65 89.1955 65H84.5455V56.795H87.9205V59.27H89.6155ZM88.8505 62.72C89.0805 62.72 89.2605 62.66 89.3905 62.54C89.5205 62.42 89.5855 62.23 89.5855 61.97C89.5855 61.71 89.5205 61.525 89.3905 61.415C89.2605 61.305 89.0805 61.25 88.8505 61.25H87.9205V62.72H88.8505Z" fill="white"/>
<defs>
<linearGradient id="paint0_linear_8003_855" x1="60" y1="0" x2="60" y2="120" gradientUnits="userSpaceOnUse">
<stop stop-color="#FAFF00"/>
<stop offset="1" stop-color="#969900"/>
</linearGradient>
</defs>
</svg>
