<svg width="120" height="120" viewBox="0 0 120 120" fill="none" xmlns="http://www.w3.org/2000/svg">
<circle cx="60" cy="60" r="58" fill="black" fill-opacity="0.35" stroke="url(#paint0_linear_8003_856)" stroke-width="4"/>
<path d="M37.5416 60.995V58.445H42.2366V60.995H37.5416ZM38.9666 54.26C39.7966 54.26 40.5516 54.395 41.2316 54.665C41.9216 54.925 42.5166 55.3 43.0166 55.79C43.5166 56.28 43.9016 56.86 44.1716 57.53C44.4516 58.2 44.5916 58.94 44.5916 59.75C44.5916 60.56 44.4516 61.3 44.1716 61.97C43.9016 62.64 43.5166 63.22 43.0166 63.71C42.5166 64.2 41.9216 64.58 41.2316 64.85C40.5516 65.11 39.7966 65.24 38.9666 65.24C37.9366 65.24 37.0216 65.06 36.2216 64.7C35.4316 64.33 34.7766 63.81 34.2566 63.14L36.4916 61.145C36.8016 61.535 37.1416 61.84 37.5116 62.06C37.8916 62.27 38.3166 62.375 38.7866 62.375C39.1366 62.375 39.4466 62.315 39.7166 62.195C39.9966 62.075 40.2316 61.9 40.4216 61.67C40.6216 61.44 40.7716 61.165 40.8716 60.845C40.9716 60.515 41.0216 60.15 41.0216 59.75C41.0216 59.35 40.9716 58.99 40.8716 58.67C40.7716 58.34 40.6216 58.06 40.4216 57.83C40.2316 57.6 39.9966 57.425 39.7166 57.305C39.4466 57.185 39.1366 57.125 38.7866 57.125C38.3166 57.125 37.8916 57.235 37.5116 57.455C37.1416 57.665 36.8016 57.965 36.4916 58.355L34.2566 56.36C34.7766 55.68 35.4316 55.16 36.2216 54.8C37.0216 54.44 37.9366 54.26 38.9666 54.26ZM51.4264 65L49.1764 61.235L51.9064 59.645L55.4164 65H51.4264ZM45.7564 65V56.795H49.1464V65H45.7564ZM48.1564 62.27V59.675H51.2164V62.27H48.1564ZM52.2514 61.265L49.0714 60.965L51.6814 56.795H55.2514L52.2514 61.265ZM60.2567 65.15C59.3167 65.15 58.4817 64.97 57.7517 64.61C57.0217 64.25 56.4467 63.75 56.0267 63.11C55.6167 62.46 55.4117 61.72 55.4117 60.89C55.4117 60.06 55.6167 59.325 56.0267 58.685C56.4467 58.045 57.0217 57.545 57.7517 57.185C58.4817 56.825 59.3167 56.645 60.2567 56.645C61.2567 56.645 62.1117 56.86 62.8217 57.29C63.5317 57.72 64.0217 58.315 64.2917 59.075L61.6667 60.365C61.4967 59.985 61.2867 59.71 61.0367 59.54C60.7967 59.37 60.5317 59.285 60.2417 59.285C59.9917 59.285 59.7567 59.345 59.5367 59.465C59.3267 59.585 59.1567 59.765 59.0267 60.005C58.9067 60.235 58.8467 60.53 58.8467 60.89C58.8467 61.25 58.9067 61.55 59.0267 61.79C59.1567 62.03 59.3267 62.21 59.5367 62.33C59.7567 62.45 59.9917 62.51 60.2417 62.51C60.5317 62.51 60.7967 62.425 61.0367 62.255C61.2867 62.085 61.4967 61.81 61.6667 61.43L64.2917 62.72C64.0217 63.48 63.5317 64.075 62.8217 64.505C62.1117 64.935 61.2567 65.15 60.2567 65.15ZM65.2242 65V56.795H74.0292V65H70.6542V58.73L71.3892 59.435H67.8642L68.5992 58.73V65H65.2242ZM79.8546 65.15C78.9246 65.15 78.0996 64.97 77.3796 64.61C76.6696 64.24 76.1096 63.735 75.6996 63.095C75.2896 62.455 75.0846 61.72 75.0846 60.89C75.0846 60.06 75.2896 59.325 75.6996 58.685C76.1096 58.045 76.6696 57.545 77.3796 57.185C78.0996 56.825 78.9246 56.645 79.8546 56.645C80.7846 56.645 81.6096 56.825 82.3296 57.185C83.0496 57.545 83.6096 58.045 84.0096 58.685C84.4196 59.325 84.6246 60.06 84.6246 60.89C84.6246 61.72 84.4196 62.455 84.0096 63.095C83.6096 63.735 83.0496 64.24 82.3296 64.61C81.6096 64.97 80.7846 65.15 79.8546 65.15ZM79.8546 62.51C80.1046 62.51 80.3296 62.45 80.5296 62.33C80.7296 62.21 80.8896 62.03 81.0096 61.79C81.1296 61.54 81.1896 61.24 81.1896 60.89C81.1896 60.53 81.1296 60.235 81.0096 60.005C80.8896 59.765 80.7296 59.585 80.5296 59.465C80.3296 59.345 80.1046 59.285 79.8546 59.285C79.6046 59.285 79.3796 59.345 79.1796 59.465C78.9796 59.585 78.8196 59.765 78.6996 60.005C78.5796 60.235 78.5196 60.53 78.5196 60.89C78.5196 61.24 78.5796 61.54 78.6996 61.79C78.8196 62.03 78.9796 62.21 79.1796 62.33C79.3796 62.45 79.6046 62.51 79.8546 62.51Z" fill="white"/>
<defs>
<linearGradient id="paint0_linear_8003_856" x1="60" y1="0" x2="60" y2="120" gradientUnits="userSpaceOnUse">
<stop stop-color="#00C2FF"/>
<stop offset="1" stop-color="#007BA2"/>
</linearGradient>
</defs>
</svg>
