<svg width="120" height="120" viewBox="0 0 120 120" fill="none" xmlns="http://www.w3.org/2000/svg">
<circle cx="60" cy="60" r="58" fill="black" fill-opacity="0.35" stroke="url(#paint0_linear_8003_857)" stroke-width="4"/>
<path d="M9.1805 66V56.2H13.8985C14.8132 56.2 15.6018 56.3493 16.2645 56.648C16.9365 56.9467 17.4545 57.376 17.8185 57.936C18.1825 58.4867 18.3645 59.14 18.3645 59.896C18.3645 60.652 18.1825 61.3053 17.8185 61.856C17.4545 62.4067 16.9365 62.836 16.2645 63.144C15.6018 63.4427 14.8132 63.592 13.8985 63.592H11.0145L12.4845 62.178V66H9.1805ZM12.4845 62.542L11.0145 61.044H13.6885C14.1458 61.044 14.4818 60.9413 14.6965 60.736C14.9205 60.5307 15.0325 60.2507 15.0325 59.896C15.0325 59.5413 14.9205 59.2613 14.6965 59.056C14.4818 58.8507 14.1458 58.748 13.6885 58.748H11.0145L12.4845 57.25V62.542ZM23.6377 66V64.642L23.4137 64.278V61.702C23.4137 61.3287 23.297 61.044 23.0637 60.848C22.8397 60.652 22.471 60.554 21.9577 60.554C21.6124 60.554 21.2624 60.61 20.9077 60.722C20.553 60.8247 20.2497 60.9693 19.9977 61.156L18.9897 59.07C19.4377 58.79 19.9744 58.5753 20.5997 58.426C21.225 58.2767 21.8364 58.202 22.4337 58.202C23.7497 58.202 24.767 58.496 25.4857 59.084C26.2137 59.672 26.5777 60.6053 26.5777 61.884V66H23.6377ZM21.4677 66.14C20.8424 66.14 20.3197 66.0327 19.8997 65.818C19.4797 65.6033 19.1624 65.3187 18.9477 64.964C18.733 64.6 18.6257 64.1987 18.6257 63.76C18.6257 63.2653 18.7517 62.8453 19.0037 62.5C19.2557 62.1547 19.6384 61.8933 20.1517 61.716C20.6744 61.5387 21.3324 61.45 22.1257 61.45H23.7217V62.976H22.6297C22.2937 62.976 22.0464 63.032 21.8877 63.144C21.7384 63.2467 21.6637 63.4053 21.6637 63.62C21.6637 63.7973 21.729 63.9467 21.8597 64.068C21.9997 64.18 22.1864 64.236 22.4197 64.236C22.6344 64.236 22.8304 64.18 23.0077 64.068C23.1944 63.9467 23.3297 63.76 23.4137 63.508L23.8197 64.446C23.6984 65.0153 23.4417 65.44 23.0497 65.72C22.6577 66 22.1304 66.14 21.4677 66.14ZM30.835 66.182C30.247 66.182 29.645 66.1353 29.029 66.042C28.4223 65.9487 27.8297 65.7993 27.251 65.594L28.049 63.508C28.4877 63.6667 28.9263 63.7787 29.365 63.844C29.813 63.9093 30.275 63.942 30.751 63.942C30.9657 63.942 31.1523 63.9233 31.311 63.886C31.479 63.8487 31.6097 63.7927 31.703 63.718C31.7963 63.6433 31.843 63.5453 31.843 63.424C31.843 63.2747 31.7963 63.172 31.703 63.116C31.619 63.0507 31.4697 63.018 31.255 63.018H29.505V61.254H30.961C31.1197 61.254 31.2457 61.24 31.339 61.212C31.4417 61.184 31.5163 61.1373 31.563 61.072C31.6097 61.0067 31.633 60.9273 31.633 60.834C31.633 60.7407 31.6003 60.6613 31.535 60.596C31.479 60.5307 31.3763 60.4793 31.227 60.442C31.087 60.4047 30.891 60.386 30.639 60.386C30.2657 60.386 29.8737 60.428 29.463 60.512C29.0523 60.596 28.6277 60.7127 28.189 60.862L27.475 58.86C27.9977 58.6547 28.539 58.4913 29.099 58.37C29.6683 58.2487 30.219 58.1833 30.751 58.174C31.4977 58.1647 32.179 58.2393 32.795 58.398C33.411 58.5567 33.901 58.7993 34.265 59.126C34.629 59.4527 34.811 59.8727 34.811 60.386C34.811 60.7593 34.6943 61.0953 34.461 61.394C34.237 61.6927 33.9337 61.9307 33.551 62.108C33.1683 62.2853 32.739 62.374 32.263 62.374L32.333 61.814C33.1543 61.814 33.8077 61.982 34.293 62.318C34.7783 62.654 35.021 63.1067 35.021 63.676C35.021 64.2267 34.8297 64.6887 34.447 65.062C34.0643 65.4353 33.5557 65.7153 32.921 65.902C32.2957 66.0887 31.6003 66.182 30.835 66.182ZM36.0291 66V58.342H40.3271C41.3538 58.342 42.1518 58.5193 42.7211 58.874C43.2904 59.2193 43.5751 59.7093 43.5751 60.344C43.5751 60.96 43.3138 61.4547 42.7911 61.828C42.2684 62.192 41.5638 62.374 40.6771 62.374L40.9151 61.73C41.8578 61.73 42.5718 61.9027 43.0571 62.248C43.5518 62.5933 43.7991 63.0973 43.7991 63.76C43.7991 64.4413 43.5284 64.9873 42.9871 65.398C42.4551 65.7993 41.6431 66 40.5511 66H36.0291ZM38.8011 64.04H40.2711C40.5044 64.04 40.6771 63.9887 40.7891 63.886C40.9011 63.7833 40.9571 63.6433 40.9571 63.466C40.9571 63.2793 40.9011 63.144 40.7891 63.06C40.6771 62.9667 40.5044 62.92 40.2711 62.92H38.8011V64.04ZM38.8011 61.366H40.0471C40.2898 61.366 40.4624 61.3193 40.5651 61.226C40.6771 61.1327 40.7331 60.9973 40.7331 60.82C40.7331 60.6333 40.6771 60.5027 40.5651 60.428C40.4624 60.344 40.2898 60.302 40.0471 60.302H38.8011V61.366ZM44.2458 66L44.3718 63.438C44.4278 63.4473 44.4838 63.4567 44.5398 63.466C44.5958 63.466 44.6471 63.466 44.6938 63.466C44.8991 63.466 45.0625 63.4287 45.1838 63.354C45.3051 63.27 45.3985 63.1533 45.4638 63.004C45.5385 62.8453 45.5898 62.6587 45.6178 62.444C45.6458 62.22 45.6645 61.9633 45.6738 61.674L45.7858 58.342H53.0938V66H49.9298V60.148L50.6158 60.806H47.8718L48.5158 60.106L48.4458 61.8C48.4178 62.4907 48.3571 63.1113 48.2638 63.662C48.1705 64.2033 48.0211 64.6653 47.8158 65.048C47.6198 65.4213 47.3491 65.7107 47.0038 65.916C46.6678 66.112 46.2385 66.21 45.7158 66.21C45.5105 66.21 45.2818 66.1913 45.0298 66.154C44.7871 66.1167 44.5258 66.0653 44.2458 66ZM58.7118 66.14C57.7785 66.14 56.9618 65.9673 56.2618 65.622C55.5712 65.2767 55.0345 64.8053 54.6518 64.208C54.2692 63.6013 54.0778 62.92 54.0778 62.164C54.0778 61.3893 54.2645 60.7033 54.6378 60.106C55.0205 59.5087 55.5385 59.042 56.1918 58.706C56.8545 58.37 57.5965 58.202 58.4178 58.202C59.1738 58.202 59.8692 58.3513 60.5038 58.65C61.1478 58.9487 61.6612 59.392 62.0438 59.98C62.4358 60.568 62.6318 61.296 62.6318 62.164C62.6318 62.276 62.6272 62.402 62.6178 62.542C62.6085 62.6727 62.5992 62.794 62.5898 62.906H56.6958V61.38H60.9098L59.7198 61.786C59.7198 61.4873 59.6638 61.2353 59.5518 61.03C59.4492 60.8153 59.3045 60.652 59.1178 60.54C58.9312 60.4187 58.7072 60.358 58.4458 60.358C58.1845 60.358 57.9558 60.4187 57.7598 60.54C57.5732 60.652 57.4285 60.8153 57.3258 61.03C57.2232 61.2353 57.1718 61.4873 57.1718 61.786V62.262C57.1718 62.5887 57.2372 62.8687 57.3678 63.102C57.4985 63.3353 57.6852 63.5127 57.9278 63.634C58.1705 63.746 58.4645 63.802 58.8098 63.802C59.1645 63.802 59.4538 63.7553 59.6778 63.662C59.9112 63.5687 60.1538 63.4287 60.4058 63.242L62.0578 64.908C61.6845 65.3093 61.2225 65.6173 60.6718 65.832C60.1305 66.0373 59.4772 66.14 58.7118 66.14ZM68.6133 63.284C68.408 63.4333 68.142 63.5593 67.8153 63.662C67.498 63.7553 67.106 63.802 66.6393 63.802C65.538 63.802 64.712 63.5593 64.1613 63.074C63.62 62.5793 63.3493 61.7813 63.3493 60.68V58.342H66.4993V60.47C66.4993 60.862 66.574 61.1327 66.7233 61.282C66.8727 61.422 67.0967 61.492 67.3953 61.492C67.6567 61.492 67.8853 61.464 68.0813 61.408C68.2867 61.3427 68.4593 61.2587 68.5993 61.156L68.6133 63.284ZM68.4033 66V58.342H71.5533V66H68.4033ZM77.1689 66.14C76.2355 66.14 75.4189 65.9673 74.7189 65.622C74.0282 65.2767 73.4915 64.8053 73.1089 64.208C72.7262 63.6013 72.5349 62.92 72.5349 62.164C72.5349 61.3893 72.7215 60.7033 73.0949 60.106C73.4775 59.5087 73.9955 59.042 74.6489 58.706C75.3115 58.37 76.0535 58.202 76.8749 58.202C77.6309 58.202 78.3262 58.3513 78.9609 58.65C79.6049 58.9487 80.1182 59.392 80.5009 59.98C80.8929 60.568 81.0889 61.296 81.0889 62.164C81.0889 62.276 81.0842 62.402 81.0749 62.542C81.0655 62.6727 81.0562 62.794 81.0469 62.906H75.1529V61.38H79.3669L78.1769 61.786C78.1769 61.4873 78.1209 61.2353 78.0089 61.03C77.9062 60.8153 77.7615 60.652 77.5749 60.54C77.3882 60.4187 77.1642 60.358 76.9029 60.358C76.6415 60.358 76.4129 60.4187 76.2169 60.54C76.0302 60.652 75.8855 60.8153 75.7829 61.03C75.6802 61.2353 75.6289 61.4873 75.6289 61.786V62.262C75.6289 62.5887 75.6942 62.8687 75.8249 63.102C75.9555 63.3353 76.1422 63.5127 76.3849 63.634C76.6275 63.746 76.9215 63.802 77.2669 63.802C77.6215 63.802 77.9109 63.7553 78.1349 63.662C78.3682 63.5687 78.6109 63.4287 78.8629 63.242L80.5149 64.908C80.1415 65.3093 79.6795 65.6173 79.1289 65.832C78.5875 66.0373 77.9342 66.14 77.1689 66.14ZM82.2264 66V58.342H85.3764V61.03H87.5324V58.342H90.6824V66H87.5324V63.508H85.3764V66H82.2264ZM92.1658 66V58.342H95.3158V61.8L97.9618 58.342H100.874V66H97.7238V62.528L95.0918 66H92.1658ZM107.139 66V63.592L107.531 64.054H105.781C104.596 64.054 103.658 63.816 102.967 63.34C102.277 62.8547 101.931 62.1733 101.931 61.296C101.931 60.3627 102.286 59.6393 102.995 59.126C103.714 58.6033 104.685 58.342 105.907 58.342H109.939V66H107.139ZM101.777 66L103.779 63.102H106.971L105.123 66H101.777ZM107.139 62.654V60.036L107.531 60.792H105.977C105.716 60.792 105.515 60.8433 105.375 60.946C105.235 61.0393 105.165 61.1933 105.165 61.408C105.165 61.856 105.436 62.08 105.977 62.08H107.531L107.139 62.654Z" fill="white"/>
<defs>
<linearGradient id="paint0_linear_8003_857" x1="60" y1="0" x2="60" y2="120" gradientUnits="userSpaceOnUse">
<stop stop-color="#00FFD1"/>
<stop offset="1" stop-color="#00997D"/>
</linearGradient>
</defs>
</svg>
