<svg width="120" height="120" viewBox="0 0 120 120" fill="none" xmlns="http://www.w3.org/2000/svg">
<circle cx="60" cy="60" r="58" fill="black" fill-opacity="0.35" stroke="url(#paint0_linear_8003_858)" stroke-width="4"/>
<path d="M29.4705 56V45.5H32.3805L36.5805 52.355H35.0505L39.1305 45.5H42.0405L42.0705 56H38.8455L38.8155 50.36H39.3255L36.5355 55.055H34.9755L32.0655 50.36H32.6955V56H29.4705ZM48.5639 56V54.545L48.3239 54.155V51.395C48.3239 50.995 48.1989 50.69 47.9489 50.48C47.7089 50.27 47.3139 50.165 46.7639 50.165C46.3939 50.165 46.0189 50.225 45.6389 50.345C45.2589 50.455 44.9339 50.61 44.6639 50.81L43.5839 48.575C44.0639 48.275 44.6389 48.045 45.3089 47.885C45.9789 47.725 46.6339 47.645 47.2739 47.645C48.6839 47.645 49.7739 47.96 50.5439 48.59C51.3239 49.22 51.7139 50.22 51.7139 51.59V56H48.5639ZM46.2389 56.15C45.5689 56.15 45.0089 56.035 44.5589 55.805C44.1089 55.575 43.7689 55.27 43.5389 54.89C43.3089 54.5 43.1939 54.07 43.1939 53.6C43.1939 53.07 43.3289 52.62 43.5989 52.25C43.8689 51.88 44.2789 51.6 44.8289 51.41C45.3889 51.22 46.0939 51.125 46.9439 51.125H48.6539V52.76H47.4839C47.1239 52.76 46.8589 52.82 46.6889 52.94C46.5289 53.05 46.4489 53.22 46.4489 53.45C46.4489 53.64 46.5189 53.8 46.6589 53.93C46.8089 54.05 47.0089 54.11 47.2589 54.11C47.4889 54.11 47.6989 54.05 47.8889 53.93C48.0889 53.8 48.2339 53.6 48.3239 53.33L48.7589 54.335C48.6289 54.945 48.3539 55.4 47.9339 55.7C47.5139 56 46.9489 56.15 46.2389 56.15ZM57.4003 56.15C56.4603 56.15 55.6253 55.97 54.8953 55.61C54.1653 55.25 53.5903 54.75 53.1703 54.11C52.7603 53.46 52.5553 52.72 52.5553 51.89C52.5553 51.06 52.7603 50.325 53.1703 49.685C53.5903 49.045 54.1653 48.545 54.8953 48.185C55.6253 47.825 56.4603 47.645 57.4003 47.645C58.4003 47.645 59.2553 47.86 59.9653 48.29C60.6753 48.72 61.1653 49.315 61.4353 50.075L58.8103 51.365C58.6403 50.985 58.4303 50.71 58.1803 50.54C57.9403 50.37 57.6753 50.285 57.3853 50.285C57.1353 50.285 56.9003 50.345 56.6803 50.465C56.4703 50.585 56.3003 50.765 56.1703 51.005C56.0503 51.235 55.9903 51.53 55.9903 51.89C55.9903 52.25 56.0503 52.55 56.1703 52.79C56.3003 53.03 56.4703 53.21 56.6803 53.33C56.9003 53.45 57.1353 53.51 57.3853 53.51C57.6753 53.51 57.9403 53.425 58.1803 53.255C58.4303 53.085 58.6403 52.81 58.8103 52.43L61.4353 53.72C61.1653 54.48 60.6753 55.075 59.9653 55.505C59.2553 55.935 58.4003 56.15 57.4003 56.15ZM64.331 56V49.715L65.066 50.435H61.826V47.795H70.211V50.435H66.971L67.706 49.715V56H64.331ZM75.3035 56.15C74.3035 56.15 73.4285 55.965 72.6785 55.595C71.9385 55.225 71.3635 54.72 70.9535 54.08C70.5435 53.43 70.3385 52.7 70.3385 51.89C70.3385 51.06 70.5385 50.325 70.9385 49.685C71.3485 49.045 71.9035 48.545 72.6035 48.185C73.3135 47.825 74.1085 47.645 74.9885 47.645C75.7985 47.645 76.5435 47.805 77.2235 48.125C77.9135 48.445 78.4635 48.92 78.8735 49.55C79.2935 50.18 79.5035 50.96 79.5035 51.89C79.5035 52.01 79.4985 52.145 79.4885 52.295C79.4785 52.435 79.4685 52.565 79.4585 52.685H73.1435V51.05H77.6585L76.3835 51.485C76.3835 51.165 76.3235 50.895 76.2035 50.675C76.0935 50.445 75.9385 50.27 75.7385 50.15C75.5385 50.02 75.2985 49.955 75.0185 49.955C74.7385 49.955 74.4935 50.02 74.2835 50.15C74.0835 50.27 73.9285 50.445 73.8185 50.675C73.7085 50.895 73.6535 51.165 73.6535 51.485V51.995C73.6535 52.345 73.7235 52.645 73.8635 52.895C74.0035 53.145 74.2035 53.335 74.4635 53.465C74.7235 53.585 75.0385 53.645 75.4085 53.645C75.7885 53.645 76.0985 53.595 76.3385 53.495C76.5885 53.395 76.8485 53.245 77.1185 53.045L78.8885 54.83C78.4885 55.26 77.9935 55.59 77.4035 55.82C76.8235 56.04 76.1235 56.15 75.3035 56.15ZM86.1972 56.15C85.4872 56.15 84.8972 56 84.4272 55.7C83.9672 55.39 83.6272 54.925 83.4072 54.305C83.1872 53.675 83.0772 52.875 83.0772 51.905C83.0772 50.915 83.1772 50.11 83.3772 49.49C83.5872 48.86 83.9222 48.395 84.3822 48.095C84.8422 47.795 85.4472 47.645 86.1972 47.645C86.9172 47.645 87.5772 47.82 88.1772 48.17C88.7772 48.51 89.2572 49 89.6172 49.64C89.9772 50.27 90.1572 51.025 90.1572 51.905C90.1572 52.785 89.9772 53.545 89.6172 54.185C89.2572 54.815 88.7772 55.3 88.1772 55.64C87.5772 55.98 86.9172 56.15 86.1972 56.15ZM80.7222 58.91V47.795H83.9472V48.905L83.9622 51.905L84.1122 54.905V58.91H80.7222ZM85.3872 53.51C85.6372 53.51 85.8622 53.45 86.0622 53.33C86.2622 53.21 86.4222 53.03 86.5422 52.79C86.6622 52.55 86.7222 52.255 86.7222 51.905C86.7222 51.545 86.6622 51.245 86.5422 51.005C86.4222 50.765 86.2622 50.585 86.0622 50.465C85.8622 50.345 85.6372 50.285 85.3872 50.285C85.1372 50.285 84.9122 50.345 84.7122 50.465C84.5122 50.585 84.3522 50.765 84.2322 51.005C84.1122 51.245 84.0522 51.545 84.0522 51.905C84.0522 52.255 84.1122 52.55 84.2322 52.79C84.3522 53.03 84.5122 53.21 84.7122 53.33C84.9122 53.45 85.1372 53.51 85.3872 53.51ZM34.7419 74L32.4919 70.235L35.2219 68.645L38.7319 74H34.7419ZM29.0719 74V65.795H32.4619V74H29.0719ZM31.4719 71.27V68.675H34.5319V71.27H31.4719ZM35.5669 70.265L32.3869 69.965L34.9969 65.795H38.5669L35.5669 70.265ZM38.8569 74L38.9919 71.255C39.0519 71.265 39.1119 71.275 39.1719 71.285C39.2319 71.285 39.2869 71.285 39.3369 71.285C39.5569 71.285 39.7319 71.245 39.8619 71.165C39.9919 71.075 40.0919 70.95 40.1619 70.79C40.2419 70.62 40.2969 70.42 40.3269 70.19C40.3569 69.95 40.3769 69.675 40.3869 69.365L40.5069 65.795H48.3369V74H44.9469V67.73L45.6819 68.435H42.7419L43.4319 67.685L43.3569 69.5C43.3269 70.24 43.2619 70.905 43.1619 71.495C43.0619 72.075 42.9019 72.57 42.6819 72.98C42.4719 73.38 42.1819 73.69 41.8119 73.91C41.4519 74.12 40.9919 74.225 40.4319 74.225C40.2119 74.225 39.9669 74.205 39.6969 74.165C39.4369 74.125 39.1569 74.07 38.8569 74ZM54.7162 74V72.545L54.4762 72.155V69.395C54.4762 68.995 54.3512 68.69 54.1012 68.48C53.8612 68.27 53.4662 68.165 52.9162 68.165C52.5462 68.165 52.1712 68.225 51.7912 68.345C51.4112 68.455 51.0862 68.61 50.8162 68.81L49.7362 66.575C50.2162 66.275 50.7912 66.045 51.4612 65.885C52.1312 65.725 52.7862 65.645 53.4262 65.645C54.8362 65.645 55.9262 65.96 56.6962 66.59C57.4762 67.22 57.8662 68.22 57.8662 69.59V74H54.7162ZM52.3912 74.15C51.7212 74.15 51.1612 74.035 50.7112 73.805C50.2612 73.575 49.9212 73.27 49.6912 72.89C49.4612 72.5 49.3462 72.07 49.3462 71.6C49.3462 71.07 49.4812 70.62 49.7512 70.25C50.0212 69.88 50.4312 69.6 50.9812 69.41C51.5412 69.22 52.2462 69.125 53.0962 69.125H54.8062V70.76H53.6362C53.2762 70.76 53.0112 70.82 52.8412 70.94C52.6812 71.05 52.6012 71.22 52.6012 71.45C52.6012 71.64 52.6712 71.8 52.8112 71.93C52.9612 72.05 53.1612 72.11 53.4112 72.11C53.6412 72.11 53.8512 72.05 54.0412 71.93C54.2412 71.8 54.3862 71.6 54.4762 71.33L54.9112 72.335C54.7812 72.945 54.5062 73.4 54.0862 73.7C53.6662 74 53.1012 74.15 52.3912 74.15ZM63.5526 74.15C62.6126 74.15 61.7776 73.97 61.0476 73.61C60.3176 73.25 59.7426 72.75 59.3226 72.11C58.9126 71.46 58.7076 70.72 58.7076 69.89C58.7076 69.06 58.9126 68.325 59.3226 67.685C59.7426 67.045 60.3176 66.545 61.0476 66.185C61.7776 65.825 62.6126 65.645 63.5526 65.645C64.5526 65.645 65.4076 65.86 66.1176 66.29C66.8276 66.72 67.3176 67.315 67.5876 68.075L64.9626 69.365C64.7926 68.985 64.5826 68.71 64.3326 68.54C64.0926 68.37 63.8276 68.285 63.5376 68.285C63.2876 68.285 63.0526 68.345 62.8326 68.465C62.6226 68.585 62.4526 68.765 62.3226 69.005C62.2026 69.235 62.1426 69.53 62.1426 69.89C62.1426 70.25 62.2026 70.55 62.3226 70.79C62.4526 71.03 62.6226 71.21 62.8326 71.33C63.0526 71.45 63.2876 71.51 63.5376 71.51C63.8276 71.51 64.0926 71.425 64.3326 71.255C64.5826 71.085 64.7926 70.81 64.9626 70.43L67.5876 71.72C67.3176 72.48 66.8276 73.075 66.1176 73.505C65.4076 73.935 64.5526 74.15 63.5526 74.15ZM72.7519 74.15C71.8119 74.15 70.9769 73.97 70.2469 73.61C69.5169 73.25 68.9419 72.75 68.5219 72.11C68.1119 71.46 67.9069 70.72 67.9069 69.89C67.9069 69.06 68.1119 68.325 68.5219 67.685C68.9419 67.045 69.5169 66.545 70.2469 66.185C70.9769 65.825 71.8119 65.645 72.7519 65.645C73.7519 65.645 74.6069 65.86 75.3169 66.29C76.0269 66.72 76.5169 67.315 76.7869 68.075L74.1619 69.365C73.9919 68.985 73.7819 68.71 73.5319 68.54C73.2919 68.37 73.0269 68.285 72.7369 68.285C72.4869 68.285 72.2519 68.345 72.0319 68.465C71.8219 68.585 71.6519 68.765 71.5219 69.005C71.4019 69.235 71.3419 69.53 71.3419 69.89C71.3419 70.25 71.4019 70.55 71.5219 70.79C71.6519 71.03 71.8219 71.21 72.0319 71.33C72.2519 71.45 72.4869 71.51 72.7369 71.51C73.0269 71.51 73.2919 71.425 73.5319 71.255C73.7819 71.085 73.9919 70.81 74.1619 70.43L76.7869 71.72C76.5169 72.48 76.0269 73.075 75.3169 73.505C74.6069 73.935 73.7519 74.15 72.7519 74.15ZM86.5543 74V65.795H89.9293V74H86.5543ZM82.7893 68.27C83.8893 68.27 84.7093 68.51 85.2493 68.99C85.7893 69.47 86.0593 70.15 86.0593 71.03C86.0593 71.95 85.7393 72.675 85.0993 73.205C84.4693 73.735 83.5593 74 82.3693 74H77.7193V65.795H81.0943V68.27H82.7893ZM82.0243 71.72C82.2543 71.72 82.4343 71.66 82.5643 71.54C82.6943 71.42 82.7593 71.23 82.7593 70.97C82.7593 70.71 82.6943 70.525 82.5643 70.415C82.4343 70.305 82.2543 70.25 82.0243 70.25H81.0943V71.72H82.0243Z" fill="white"/>
<defs>
<linearGradient id="paint0_linear_8003_858" x1="60" y1="0" x2="60" y2="120" gradientUnits="userSpaceOnUse">
<stop stop-color="#FAAD00"/>
<stop offset="1" stop-color="#F73641"/>
</linearGradient>
</defs>
</svg>
