<svg width="34" height="33" viewBox="0 0 34 33" fill="none" xmlns="http://www.w3.org/2000/svg">
<path d="M16.6668 18.9808C15.0603 18.9808 13.755 17.7198 13.755 16.1677C13.755 14.6156 15.0491 13.3545 16.6668 13.3545C18.2622 13.3545 19.5787 14.6156 19.5787 16.1677C19.5787 17.7198 18.2734 18.9808 16.6668 18.9808ZM16.6668 11.8671C14.2124 11.8671 12.2266 13.7856 12.2266 16.1677C12.2266 18.5389 14.2236 20.4683 16.6668 20.4683C19.1213 20.4683 21.1183 18.5389 21.1183 16.1677C21.1183 13.7964 19.1213 11.8671 16.6668 11.8671Z" fill="white"/>
<path d="M21.5655 10.3041C20.9965 10.3041 20.5391 10.746 20.5391 11.2957C20.5391 11.8454 20.9965 12.2873 21.5655 12.2873C22.1344 12.2873 22.5918 11.8454 22.5918 11.2957C22.5918 10.746 22.1344 10.3041 21.5655 10.3041Z" fill="white"/>
<path d="M25.224 19.6814C25.224 22.2898 23.015 24.4239 20.2928 24.4239H13.0411C10.3189 24.4239 8.10995 22.2898 8.10995 19.6922V12.6323C8.10995 10.0239 10.3189 7.88977 13.0411 7.88977H20.2928C23.015 7.88977 25.224 10.0239 25.224 12.6323V19.6814ZM16.667 0.161621C7.51866 0.161621 0.0996094 7.32929 0.0996094 16.1676C0.0996094 25.0059 7.51866 32.1736 16.667 32.1736C25.8153 32.1736 33.2343 25.0059 33.2343 16.1676C33.2343 7.32929 25.8153 0.161621 16.667 0.161621Z" fill="white"/>
</svg>
