<svg width="35" height="33" viewBox="0 0 35 33" fill="none" xmlns="http://www.w3.org/2000/svg">
<path d="M27.0252 7.49102L23.2878 24.4671C23.232 24.7904 22.8415 24.9521 22.5068 24.7904L16.7612 21.0719L13.6932 23.8743C13.4143 24.0898 13.0238 23.982 12.9123 23.6587L10.9041 17.6228L5.60478 15.521C5.2143 15.3593 5.2143 14.7126 5.60478 14.5509L26.3 6.9521C26.6905 6.84431 27.081 7.11377 27.0252 7.49102ZM17.598 0C8.33811 0 0.863281 7.22156 0.863281 16.1677C0.863281 25.1138 8.33811 32.3353 17.598 32.3353C26.8578 32.3353 34.3327 25.1138 34.3327 16.1677C34.3327 7.22156 26.8578 0 17.598 0Z" fill="white"/>
<path d="M13.5268 21.8803L13.8614 18.7545L23.2329 9.97009L11.9648 17.1378" fill="white"/>
</svg>
